<svg xmlns="http://www.w3.org/2000/svg" xmlns:xlink="http://www.w3.org/1999/xlink" width="130" height="40" viewBox="0 0 150 200" fill="none" class="app-dextools"><link xmlns="" type="text/css" rel="stylesheet" id="dark-mode-custom-link"></link><link xmlns="" type="text/css" rel="stylesheet" id="dark-mode-general-link"></link><style xmlns="" lang="en" type="text/css" id="dark-mode-custom-style"></style><style xmlns="" lang="en" type="text/css" id="dark-mode-native-style"></style><path d="M62.29 7.288c-12.625 0-18.437 9.516-18.437 22.675 0 10.46 6.753 31.408 9.523 39.563.624 1.835-.356 3.844-2.142 4.555-10.119 4.031-39.981 18.789-39.981 52.588 0 35.603 30.347 62.448 86.31 62.491l.066-.001.067.001c55.962-.043 86.309-26.888 86.309-62.491 0-33.799-29.862-48.557-39.981-52.588-1.786-.71-2.765-2.72-2.142-4.555 2.771-8.154 9.524-29.103 9.524-39.563 0-13.16-5.812-22.675-18.438-22.675-18.174 0-22.705 26.007-23.028 53.92-.021 1.863-1.513 3.375-3.357 3.375H88.676c-1.845 0-3.336-1.512-3.358-3.375-.323-27.913-4.853-53.92-23.028-53.92z"></path></svg>